<svg width="38" height="65" viewBox="0 0 38 65" fill="none" xmlns="http://www.w3.org/2000/svg">
<path d="M24.75 43.0781C22.0312 45.1094 19.0938 46.875 15.9375 48.375C12.0312 46.875 10.0781 44.0938 10.0781 40.0312C10.0781 38.2812 10.5312 36.6719 11.4375 35.2031C13.25 32.3906 15.8906 29.5312 19.3594 26.625C21.8906 24.5 23.5 22.9375 24.1875 21.9375C25.2188 20.4375 25.7344 19.0469 25.7344 17.7656C25.7344 16.4844 25.4688 15.4062 24.9375 14.5312C24.4062 13.625 23.6719 12.8594 22.7344 12.2344C20.8281 10.9531 18.4219 10.3125 15.5156 10.3125C11.7031 10.3125 8.28125 11.6094 5.25 14.2031C4.21875 15.0781 3.375 16.1406 2.71875 17.3906L2.39062 17.4844C2.48438 16.1094 2.34375 14.7188 1.96875 13.3125L0 6.28125C4.4375 2.09375 10.1719 0 17.2031 0C23.1719 0 28.1562 1.70312 32.1562 5.10938C35.9062 8.35938 37.7812 12.25 37.7812 16.7812C37.7812 19.0312 37.3125 20.9688 36.375 22.5938C34.8438 25.2812 32.8438 27.7188 30.375 29.9062C27.9062 32.0625 26.2031 33.625 25.2656 34.5938C24.3281 35.5625 23.625 36.375 23.1562 37.0312C22.4375 38.0312 22.0781 38.9844 22.0781 39.8906C22.0781 40.7969 22.3438 41.5312 22.875 42.0938C23.4375 42.625 24.0625 42.9531 24.75 43.0781ZM23.7188 53.2031C23.5938 54.7656 23.5312 56.7656 23.5312 59.2031C23.5312 61.6094 23.5938 63.3594 23.7188 64.4531H11.2969C11.5469 62.5156 11.6719 60.6094 11.6719 58.7344C11.6719 56.8281 11.5781 54.9844 11.3906 53.2031H23.7188Z" fill="black"/>
</svg>
